<svg width="20" height="13" viewBox="0 0 20 13" fill="none" xmlns="http://www.w3.org/2000/svg">
<path fill-rule="evenodd" clip-rule="evenodd" d="M19.7477 6.60292C19.7477 6.41966 19.6761 6.2439 19.5487 6.11432C19.4213 5.98473 19.2485 5.91193 19.0683 5.91193L3.04342 5.91193L7.3197 1.56427C7.38287 1.50002 7.43298 1.42375 7.46717 1.33981C7.50136 1.25587 7.51895 1.16591 7.51895 1.07505C7.51895 0.984194 7.50136 0.894228 7.46717 0.810288C7.43298 0.726348 7.38287 0.650078 7.3197 0.585834C7.25653 0.521589 7.18154 0.470627 7.099 0.435858C7.01647 0.401089 6.92801 0.383194 6.83867 0.383194C6.74933 0.383194 6.66087 0.401089 6.57834 0.435858C6.4958 0.470627 6.42081 0.521589 6.35764 0.585834L0.922262 6.1137C0.85899 6.17789 0.80879 6.25414 0.774538 6.33809C0.740287 6.42203 0.722656 6.51203 0.722656 6.60292C0.722656 6.69381 0.740287 6.7838 0.774538 6.86775C0.80879 6.9517 0.85899 7.02795 0.922262 7.09213L6.35764 12.62C6.42081 12.6842 6.4958 12.7352 6.57834 12.77C6.66087 12.8047 6.74933 12.8226 6.83867 12.8226C6.92801 12.8226 7.01647 12.8047 7.099 12.77C7.18154 12.7352 7.25653 12.6842 7.3197 12.62C7.38287 12.5558 7.43298 12.4795 7.46717 12.3955C7.50136 12.3116 7.51895 12.2216 7.51895 12.1308C7.51895 12.0399 7.50136 11.95 7.46717 11.866C7.43298 11.7821 7.38287 11.7058 7.3197 11.6416L3.04342 7.2939L19.0683 7.2939C19.2485 7.2939 19.4213 7.2211 19.5487 7.09152C19.6761 6.96193 19.7477 6.78618 19.7477 6.60292Z" fill="white"/>
</svg>
