<svg width="30" height="30" viewBox="0 0 30 30" fill="none" xmlns="http://www.w3.org/2000/svg">
<path d="M26.2995 9.85193C26.9464 9.85193 27.5668 10.1089 28.0242 10.5663C28.4816 11.0238 28.7386 11.6442 28.7386 12.291V17.1693C28.7386 17.8161 28.4816 18.4365 28.0242 18.894C27.5668 19.3514 26.9464 19.6084 26.2995 19.6084H25.0044C24.707 21.9661 23.5595 24.1343 21.7771 25.7061C19.9947 27.2779 17.7 28.1452 15.3235 28.1452V25.7061C17.2642 25.7061 19.1254 24.9352 20.4977 23.5629C21.8699 22.1907 22.6409 20.3295 22.6409 18.3888V11.0715C22.6409 9.13081 21.8699 7.26962 20.4977 5.89736C19.1254 4.5251 17.2642 3.75417 15.3235 3.75417C13.3829 3.75417 11.5217 4.5251 10.1494 5.89736C8.77715 7.26962 8.00622 9.13081 8.00622 11.0715V19.6084H4.34755C3.70066 19.6084 3.08027 19.3514 2.62285 18.894C2.16542 18.4365 1.90845 17.8161 1.90845 17.1693V12.291C1.90845 11.6442 2.16542 11.0238 2.62285 10.5663C3.08027 10.1089 3.70066 9.85193 4.34755 9.85193H5.64272C5.94033 7.49441 7.08799 5.3265 8.87036 3.75499C10.6527 2.18348 12.9473 1.31637 15.3235 1.31637C17.6998 1.31637 19.9943 2.18348 21.7767 3.75499C23.5591 5.3265 24.7067 7.49441 25.0044 9.85193H26.2995ZM10.1526 19.3462L11.4454 17.2778C12.6077 18.0059 13.952 18.391 15.3235 18.3888C16.6951 18.391 18.0394 18.0059 19.2017 17.2778L20.4944 19.3462C18.9447 20.3171 17.1523 20.8307 15.3235 20.8279C13.4948 20.8307 11.7024 20.3171 10.1526 19.3462Z" fill="#F9995D"/>
</svg>
