<svg width="30" height="30" viewBox="0 0 30 30" fill="none" xmlns="http://www.w3.org/2000/svg">
<path d="M26.9638 20.9011L20.1953 14.1326L22.11 12.2179L17.5367 7.64454L15.622 9.55924L8.85345 2.79072L3.08496 8.55921L9.85348 15.3277L4.04841 21.1328V25.7061H8.62173L14.4268 19.9011L21.1953 26.6696L26.9638 20.9011ZM11.5852 13.596L6.5363 8.55921L8.85345 6.24206L10.4023 7.79089L8.95101 9.24216L10.6706 10.9617L12.1219 9.51046L13.8902 11.2788L11.5852 13.596ZM16.1586 18.1693L18.4757 15.8521L20.2441 17.6205L18.7928 19.0718L20.5124 20.7913L21.9637 19.3401L23.5125 20.8889L21.1953 23.206L16.1586 18.1693ZM18.8453 6.34328L21.9405 3.24683L26.5114 7.81772L23.4161 10.9142L18.8453 6.34328Z" fill="#F9995D"/>
</svg>
